# xmcd
#
# Track frame offsets:
#	182
#	17332
#	41367
#	61087
#	78700
#	97375
#	116485
#	137255
#	156005
#	174450
#	197472
#
# Disc length: 2867 seconds
#
# Revision: 2
# Processed by: cddbd v1.4PL0 Copyright (c) Steve Scherf et al.
# Submitted via: dBpowerAMP V4.0
#
DISCID=800b310b
DTITLE=Cameo - Best Of Cameo
DYEAR=1997
DGENRE=Funk
TTITLE0=She's Strange
TTITLE1=I Just Want To Be
TTITLE2=Shake Your Pants
TTITLE3=I'll Always Stay
TTITLE4=Flirt
TTITLE5=I Like It
TTITLE6=I Care For You
TTITLE7=Be Yourself
TTITLE8=Keep It Hot
TTITLE9=Feel Me
TTITLE10=the Rock
EXTD=
EXTT0=
EXTT1=
EXTT2=
EXTT3=
EXTT4=
EXTT5=
EXTT6=
EXTT7=
EXTT8=
EXTT9=
EXTT10=
PLAYORDER=
